<?xml version="1.0" standalone="no"?>
<!DOCTYPE svg PUBLIC "-//W3C//DTD SVG 1.1//EN" "http://www.w3.org/Graphics/SVG/1.1/DTD/svg11.dtd">
<svg t="1686126571005" class="icon" viewBox="0 0 1024 1024" version="1.1"
  xmlns="http://www.w3.org/2000/svg" p-id="1030" xmlns:xlink="http://www.w3.org/1999/xlink"
  width="200" height="200">
  <path
    d="M734.608696 189.217391c-18.476522 0-33.391304 14.914783-33.391305 33.391305v535.596521c0 109.30087-81.474783 198.344348-182.093913 199.012174C416.278261 956.326957 322.782609 861.94087 322.782609 758.205217v-578.782608C322.782609 108.855652 388.006957 66.782609 451.005217 66.782609h2.671305C521.794783 66.782609 567.652174 111.972174 567.652174 179.422609v556.521739c0 30.497391-19.812174 64.556522-48.528696 65.446956C488.848696 800.50087 456.347826 766.664348 456.347826 735.944348V244.869565c0-18.476522-14.914783-33.391304-33.391304-33.391304S389.565217 226.393043 389.565217 244.869565v491.074783c0 65.892174 59.881739 128.445217 124.883479 132.006956H523.575652c68.563478-3.561739 110.636522-70.344348 110.636522-132.006956v-556.521739C634.434783 75.464348 558.525217 0 453.676522 0h-2.671305C341.704348 0 256 78.803478 256 179.422609v578.782608C256 898.448696 377.09913 1021.551304 516.229565 1024h5.787826C658.031304 1021.551304 768 903.346087 768 758.205217V222.608696c0-18.476522-14.914783-33.391304-33.391304-33.391305z"
    fill="#66CC00" p-id="1031"></path>
</svg>